<?xml version="1.0" encoding="UTF-8"?>
<svg xmlns="http://www.w3.org/2000/svg" xmlns:xlink="http://www.w3.org/1999/xlink" width="50px" height="50px" viewBox="0 0 50 50" version="1.1">
<g id="surface1">
<path style=" stroke:none;fill-rule:nonzero;fill:rgb(0%,0%,0%);fill-opacity:1;" d="M 19.835938 1.289062 C 19.015625 1.523438 18.28125 2.304688 18.117188 3.125 C 18.078125 3.308594 17.902344 3.632812 17.726562 3.828125 C 17.21875 4.421875 17.070312 5.195312 17.304688 5.976562 C 17.460938 6.492188 18.164062 7.265625 18.652344 7.460938 C 18.867188 7.546875 19.042969 7.664062 19.042969 7.734375 C 19.042969 7.800781 19.160156 8.359375 19.296875 8.972656 C 19.492188 9.804688 19.621094 10.15625 19.796875 10.332031 C 20.019531 10.554688 20.070312 10.566406 20.929688 10.496094 C 22.023438 10.417969 22.433594 10.300781 22.578125 10.027344 C 22.636719 9.910156 22.726562 9.246094 22.765625 8.554688 C 22.832031 7.304688 22.832031 7.285156 23.105469 7.089844 C 23.585938 6.746094 23.917969 6.328125 24.074219 5.867188 C 24.386719 4.949219 24.199219 4.179688 23.496094 3.464844 C 23.234375 3.203125 22.902344 2.761719 22.765625 2.488281 C 22.199219 1.433594 21.007812 0.945312 19.835938 1.289062 Z M 19.835938 1.289062 "/>
<path style=" stroke:none;fill-rule:nonzero;fill:rgb(0%,0%,0%);fill-opacity:1;" d="M 9.804688 3.328125 C 9.511719 3.652344 9.542969 5.058594 9.855469 5.691406 C 10.070312 6.140625 10.070312 6.171875 9.914062 6.492188 C 9.492188 7.382812 9.542969 8.640625 10.03125 9.609375 C 10.421875 10.378906 11.457031 11.335938 12.414062 11.804688 C 13.566406 12.371094 14.550781 12.605469 16.015625 12.664062 C 17.167969 12.714844 17.257812 12.703125 17.5 12.5 C 17.851562 12.226562 17.871094 11.746094 17.550781 11.355469 C 16.90625 10.574219 15.753906 8.542969 15.175781 7.195312 C 14.503906 5.59375 13.496094 4.804688 12.265625 4.910156 C 11.933594 4.941406 11.574219 4.988281 11.464844 5.027344 C 11.210938 5.105469 11.132812 4.890625 11.132812 4.089844 C 11.132812 3.679688 11.085938 3.496094 10.9375 3.339844 C 10.664062 3.046875 10.058594 3.046875 9.804688 3.328125 Z M 12.960938 6.640625 C 13.195312 6.777344 13.378906 7.058594 13.722656 7.78125 C 14.277344 8.992188 14.914062 10.203125 15.207031 10.644531 L 15.429688 10.984375 L 15.195312 11.015625 C 14.492188 11.101562 12.863281 10.410156 12.089844 9.6875 C 11.027344 8.691406 10.851562 7.46875 11.671875 6.746094 C 12.082031 6.386719 12.5 6.355469 12.960938 6.640625 Z M 12.960938 6.640625 "/>
<path style=" stroke:none;fill-rule:nonzero;fill:rgb(0%,0%,0%);fill-opacity:1;" d="M 29.601562 7.96875 C 29.003906 8.183594 28.476562 8.523438 27.980469 9.03125 C 27.355469 9.648438 26.953125 10.242188 26.953125 10.546875 C 26.953125 11.101562 28.214844 12.460938 29.171875 12.9375 C 29.640625 13.183594 29.855469 13.230469 30.46875 13.230469 C 31.085938 13.230469 31.289062 13.183594 31.769531 12.9375 C 32.726562 12.460938 33.984375 11.09375 33.984375 10.546875 C 33.984375 10 32.726562 8.632812 31.796875 8.164062 C 31.113281 7.820312 30.226562 7.734375 29.601562 7.96875 Z M 31.105469 9.570312 C 31.320312 9.675781 31.671875 9.941406 31.886719 10.164062 L 32.277344 10.566406 L 31.757812 11.042969 C 30.820312 11.902344 30.117188 11.902344 29.179688 11.042969 L 28.664062 10.566406 L 29.042969 10.164062 C 29.472656 9.726562 30.097656 9.375 30.460938 9.375 C 30.597656 9.375 30.878906 9.460938 31.105469 9.570312 Z M 31.105469 9.570312 "/>
<path style=" stroke:none;fill-rule:nonzero;fill:rgb(0%,0%,0%);fill-opacity:1;" d="M 2.257812 12.273438 C 2.089844 12.410156 1.835938 13.242188 1.027344 16.355469 C 0.460938 18.503906 0 20.339844 0 20.429688 C 0 20.515625 0.0976562 20.710938 0.214844 20.847656 C 0.421875 21.082031 0.820312 21.191406 4.835938 22.078125 C 8.046875 22.800781 9.296875 23.035156 9.472656 22.976562 C 9.601562 22.9375 9.804688 22.753906 9.921875 22.578125 L 10.136719 22.265625 L 10.617188 22.636719 C 12.246094 23.933594 13.105469 25.644531 13.253906 27.878906 C 13.300781 28.710938 13.339844 28.875 13.535156 29.070312 C 13.847656 29.382812 14.296875 29.363281 14.621094 29.042969 C 14.863281 28.789062 14.875 28.769531 14.816406 27.792969 C 14.628906 24.902344 13.371094 22.578125 11.210938 21.152344 C 10.703125 20.808594 10.65625 20.75 10.714844 20.496094 C 10.78125 20.144531 10.539062 19.753906 10.15625 19.589844 L 9.875 19.472656 L 10.117188 19.160156 C 10.253906 18.984375 10.441406 18.847656 10.539062 18.847656 C 10.96875 18.847656 11.339844 18.621094 11.535156 18.25 L 11.71875 17.871094 L 12.238281 18.125 C 14.394531 19.21875 15.890625 21.132812 16.574219 23.679688 C 16.808594 24.570312 16.828125 24.832031 16.847656 26.601562 C 16.855469 28.503906 16.855469 28.542969 17.082031 28.71875 C 17.363281 28.953125 17.785156 28.953125 18.066406 28.730469 C 18.339844 28.515625 18.4375 27.917969 18.449219 26.5625 C 18.476562 23.25 17.414062 20.507812 15.3125 18.496094 C 14.386719 17.605469 13.878906 17.234375 12.910156 16.746094 L 12.21875 16.40625 L 12.363281 16.0625 C 12.636719 15.398438 12.453125 14.96875 11.796875 14.753906 C 10.050781 14.207031 2.804688 12.109375 2.65625 12.109375 C 2.550781 12.109375 2.375 12.1875 2.257812 12.273438 Z M 2.257812 12.273438 "/>
<path style=" stroke:none;fill-rule:nonzero;fill:rgb(0%,0%,0%);fill-opacity:1;" d="M 23.183594 12.246094 C 22.65625 12.410156 22.160156 12.800781 21.835938 13.28125 C 21.691406 13.496094 21.503906 13.671875 21.40625 13.671875 C 21.125 13.671875 20.34375 14.238281 20.117188 14.597656 C 20.011719 14.773438 19.863281 15.078125 19.796875 15.261719 C 19.726562 15.46875 19.542969 15.703125 19.335938 15.839844 C 19.152344 15.964844 18.867188 16.277344 18.703125 16.542969 C 18.449219 16.960938 18.410156 17.117188 18.410156 17.714844 C 18.410156 18.914062 19.015625 19.648438 20.402344 20.117188 C 20.9375 20.300781 21.085938 20.390625 21.035156 20.507812 C 21.007812 20.585938 20.851562 21.015625 20.695312 21.464844 C 20.390625 22.351562 20.410156 22.605469 20.820312 22.890625 C 21.378906 23.28125 21.835938 22.9375 22.226562 21.824219 C 22.375 21.394531 22.53125 21.003906 22.570312 20.957031 C 22.609375 20.917969 22.929688 20.976562 23.292969 21.09375 C 24.648438 21.542969 25.878906 21.199219 26.503906 20.183594 C 26.835938 19.648438 26.945312 18.875 26.769531 18.328125 C 26.671875 18.046875 26.679688 17.890625 26.816406 17.480469 C 27.023438 16.863281 26.953125 16.140625 26.652344 15.632812 C 26.484375 15.371094 26.425781 15.117188 26.417969 14.597656 C 26.40625 13.835938 26.242188 13.4375 25.742188 12.910156 C 25.117188 12.234375 24.042969 11.960938 23.183594 12.246094 Z M 24.40625 13.816406 C 24.5625 13.894531 24.738281 14.089844 24.804688 14.257812 C 24.914062 14.519531 24.914062 14.617188 24.777344 14.902344 C 24.53125 15.410156 24.570312 15.605469 25 16.074219 C 25.460938 16.570312 25.488281 16.824219 25.148438 17.285156 C 24.855469 17.683594 24.835938 18.125 25.097656 18.457031 C 25.449219 18.90625 25.304688 19.453125 24.765625 19.675781 C 24.472656 19.804688 24.375 19.792969 23.789062 19.609375 C 23.4375 19.492188 23.144531 19.34375 23.144531 19.285156 C 23.144531 19.226562 23.28125 18.808594 23.4375 18.359375 C 23.769531 17.46875 23.761719 17.089844 23.410156 16.84375 C 23.097656 16.628906 22.628906 16.660156 22.394531 16.914062 C 22.285156 17.039062 22.070312 17.5 21.925781 17.9375 C 21.789062 18.386719 21.632812 18.769531 21.59375 18.796875 C 21.542969 18.816406 21.242188 18.75 20.910156 18.640625 C 19.992188 18.328125 19.6875 17.800781 20.117188 17.253906 C 20.226562 17.117188 20.449219 16.980469 20.605469 16.941406 C 21.007812 16.855469 21.289062 16.464844 21.289062 15.996094 C 21.289062 15.476562 21.632812 15.136719 22.140625 15.136719 C 22.636719 15.136719 22.921875 14.921875 23.046875 14.453125 C 23.234375 13.777344 23.808594 13.503906 24.40625 13.816406 Z M 24.40625 13.816406 "/>
<path style=" stroke:none;fill-rule:nonzero;fill:rgb(0%,0%,0%);fill-opacity:1;" d="M 32.023438 18.125 C 31.496094 18.28125 30.65625 18.992188 30.46875 19.433594 C 30.402344 19.597656 30.207031 19.792969 30.019531 19.882812 C 29.84375 19.96875 29.542969 20.183594 29.355469 20.371094 C 28.292969 21.40625 28.253906 23.046875 29.269531 24.128906 L 29.71875 24.617188 L 29.542969 26.230469 C 29.316406 28.300781 29.289062 28.25 30.820312 28.632812 C 31.40625 28.777344 31.964844 28.894531 32.050781 28.90625 C 32.421875 28.90625 32.726562 28.457031 33.28125 27.058594 L 33.847656 25.644531 L 34.425781 25.457031 C 35.246094 25.183594 35.957031 24.460938 36.191406 23.679688 C 36.40625 22.910156 36.328125 22.214844 35.949219 21.53125 C 35.753906 21.191406 35.644531 20.859375 35.644531 20.625 C 35.644531 19.578125 34.785156 18.417969 33.789062 18.125 C 33.15625 17.9375 32.617188 17.9375 32.023438 18.125 Z M 32.023438 18.125 "/>
<path style=" stroke:none;fill-rule:nonzero;fill:rgb(0%,0%,0%);fill-opacity:1;" d="M 23.390625 23.953125 C 22.304688 24.316406 20.703125 25.867188 20.703125 26.5625 C 20.703125 27.117188 21.964844 28.476562 22.921875 28.953125 C 23.398438 29.199219 23.605469 29.246094 24.21875 29.246094 C 24.835938 29.246094 25.039062 29.199219 25.519531 28.953125 C 26.476562 28.476562 27.734375 27.117188 27.734375 26.5625 C 27.734375 26.003906 26.464844 24.636719 25.527344 24.179688 C 24.863281 23.847656 23.984375 23.757812 23.390625 23.953125 Z M 24.855469 25.585938 C 25.070312 25.691406 25.421875 25.957031 25.636719 26.179688 L 26.027344 26.582031 L 25.507812 27.058594 C 24.570312 27.917969 23.867188 27.917969 22.929688 27.058594 L 22.414062 26.582031 L 22.792969 26.179688 C 23.222656 25.742188 23.847656 25.390625 24.210938 25.390625 C 24.347656 25.390625 24.628906 25.476562 24.855469 25.585938 Z M 24.855469 25.585938 "/>
<path style=" stroke:none;fill-rule:nonzero;fill:rgb(0%,0%,0%);fill-opacity:1;" d="M 0.246094 30.710938 C -0.0390625 30.984375 -0.0703125 31.492188 0.109375 33.085938 C 0.800781 39.472656 4.816406 44.902344 10.722656 47.421875 C 14.609375 49.082031 18.9375 49.257812 23.097656 47.929688 C 24.367188 47.527344 26.671875 46.355469 27.832031 45.535156 C 29.023438 44.6875 31.015625 42.695312 31.855469 41.503906 C 32.617188 40.4375 33.730469 38.308594 34.140625 37.136719 L 34.425781 36.328125 L 39.628906 36.328125 C 44.003906 36.328125 44.875 36.308594 45.109375 36.179688 C 45.578125 35.945312 45.65625 35.390625 45.265625 35.007812 L 45.03125 34.765625 L 39.941406 34.765625 C 35.410156 34.765625 34.863281 34.746094 34.863281 34.609375 C 34.863281 34.53125 34.902344 34.167969 34.953125 33.808594 C 35.011719 33.445312 35.078125 32.898438 35.109375 32.585938 L 35.167969 32.03125 L 49.523438 32.03125 L 49.757812 31.785156 C 50.078125 31.472656 50.078125 31.023438 49.757812 30.710938 L 49.523438 30.46875 L 0.480469 30.46875 Z M 7.316406 39.089844 C 9.425781 41.5625 11.875 43.152344 14.453125 43.75 C 15.15625 43.90625 15.429688 44.160156 15.429688 44.636719 C 15.429688 44.921875 15.371094 45.046875 15.167969 45.214844 C 14.835938 45.46875 14.570312 45.4375 13.203125 45.007812 C 11.339844 44.402344 9.726562 43.503906 8.144531 42.175781 C 7.246094 41.425781 5.898438 39.871094 5.800781 39.480469 C 5.675781 38.992188 6.230469 38.40625 6.691406 38.535156 C 6.796875 38.5625 7.082031 38.816406 7.316406 39.089844 Z M 7.316406 39.089844 "/>
</g>
</svg>
