<?xml version="1.0" encoding="UTF-8"?>
<svg xmlns="http://www.w3.org/2000/svg" xmlns:xlink="http://www.w3.org/1999/xlink" width="50px" height="50px" viewBox="0 0 50 50" version="1.1">
<g id="surface1">
<path style=" stroke:none;fill-rule:nonzero;fill:rgb(10.980392%,12.156863%,12.54902%);fill-opacity:1;" d="M 43.847656 48.078125 L 34.617188 48.078125 C 34.152344 48.078125 33.847656 48.382812 33.847656 48.847656 C 33.847656 49.308594 34.152344 49.617188 34.617188 49.617188 L 43.847656 49.617188 C 44.308594 49.617188 44.617188 49.308594 44.617188 48.847656 C 44.617188 48.382812 44.308594 48.078125 43.847656 48.078125 Z M 43.847656 48.078125 "/>
<path style=" stroke:none;fill-rule:nonzero;fill:rgb(10.980392%,12.156863%,12.54902%);fill-opacity:1;" d="M 47.691406 48.078125 L 46.152344 48.078125 C 45.691406 48.078125 45.382812 48.382812 45.382812 48.847656 C 45.382812 49.308594 45.691406 49.617188 46.152344 49.617188 L 47.691406 49.617188 C 48.152344 49.617188 48.460938 49.308594 48.460938 48.847656 C 48.460938 48.382812 48.152344 48.078125 47.691406 48.078125 Z M 47.691406 48.078125 "/>
<path style=" stroke:none;fill-rule:nonzero;fill:rgb(10.980392%,12.156863%,12.54902%);fill-opacity:1;" d="M 3.078125 11.152344 C 3.539062 11.152344 3.847656 10.847656 3.847656 10.382812 L 3.847656 4.230469 C 3.847656 3.769531 3.539062 3.460938 3.078125 3.460938 C 2.617188 3.460938 2.308594 3.769531 2.308594 4.230469 L 2.308594 10.382812 C 2.308594 10.847656 2.617188 11.152344 3.078125 11.152344 Z M 3.078125 11.152344 "/>
<path style=" stroke:none;fill-rule:nonzero;fill:rgb(10.980392%,12.156863%,12.54902%);fill-opacity:1;" d="M 3.078125 2.691406 C 3.539062 2.691406 3.847656 2.382812 3.847656 1.921875 L 3.847656 1.152344 C 3.847656 0.691406 3.539062 0.382812 3.078125 0.382812 C 2.617188 0.382812 2.308594 0.691406 2.308594 1.152344 L 2.308594 1.921875 C 2.308594 2.382812 2.617188 2.691406 3.078125 2.691406 Z M 3.078125 2.691406 "/>
<path style=" stroke:none;fill-rule:nonzero;fill:rgb(10.980392%,12.156863%,12.54902%);fill-opacity:1;" d="M 6.152344 28.847656 C 6.152344 28.382812 5.847656 28.078125 5.382812 28.078125 L 4.617188 28.078125 L 4.617188 27.308594 C 4.617188 26.847656 4.308594 26.539062 3.847656 26.539062 C 3.382812 26.539062 3.078125 26.847656 3.078125 27.308594 L 3.078125 28.078125 L 2.308594 28.078125 C 1.847656 28.078125 1.539062 28.382812 1.539062 28.847656 C 1.539062 29.308594 1.847656 29.617188 2.308594 29.617188 L 3.078125 29.617188 L 3.078125 30.382812 C 3.078125 30.847656 3.382812 31.152344 3.847656 31.152344 C 4.308594 31.152344 4.617188 30.847656 4.617188 30.382812 L 4.617188 29.617188 L 5.382812 29.617188 C 5.847656 29.617188 6.152344 29.308594 6.152344 28.847656 Z M 6.152344 28.847656 "/>
<path style=" stroke:none;fill-rule:nonzero;fill:rgb(10.980392%,12.156863%,12.54902%);fill-opacity:1;" d="M 44.691406 3.460938 L 43.921875 3.460938 L 43.921875 2.691406 C 43.921875 2.230469 43.617188 1.921875 43.152344 1.921875 C 42.691406 1.921875 42.382812 2.230469 42.382812 2.691406 L 42.382812 3.460938 L 41.617188 3.460938 C 41.152344 3.460938 40.847656 3.769531 40.847656 4.230469 C 40.847656 4.691406 41.152344 5 41.617188 5 L 42.382812 5 L 42.382812 5.769531 C 42.382812 6.230469 42.691406 6.539062 43.152344 6.539062 C 43.617188 6.539062 43.921875 6.230469 43.921875 5.769531 L 43.921875 5 L 44.691406 5 C 45.152344 5 45.460938 4.691406 45.460938 4.230469 C 45.460938 3.769531 45.152344 3.460938 44.691406 3.460938 Z M 44.691406 3.460938 "/>
<path style=" stroke:none;fill-rule:nonzero;fill:rgb(10.980392%,12.156863%,12.54902%);fill-opacity:1;" d="M 15.152344 36 C 13.382812 36 11.691406 35.382812 10.382812 34.308594 L 5.769531 44.152344 L 13.078125 41.539062 L 15.769531 48.847656 L 20.460938 38.847656 C 19.691406 38.460938 19.078125 38 18.460938 37.382812 C 17.539062 36.460938 16.382812 36 15.152344 36 Z M 15.152344 36 "/>
<path style=" stroke:none;fill-rule:nonzero;fill:rgb(10.980392%,12.156863%,12.54902%);fill-opacity:1;" d="M 36.460938 34.921875 C 35.308594 35.617188 34 36 32.539062 36 C 31.308594 36 30.152344 36.460938 29.308594 37.382812 C 28.460938 38.230469 27.460938 38.847656 26.308594 39.230469 L 30.769531 48.847656 L 33.460938 41.539062 L 40.769531 44.230469 Z M 36.460938 34.921875 "/>
<path style=" stroke:none;fill-rule:nonzero;fill:rgb(10.980392%,12.156863%,12.54902%);fill-opacity:1;" d="M 23.847656 7.308594 C 17.078125 7.308594 11.539062 12.847656 11.539062 19.617188 C 11.539062 26.382812 17.078125 31.921875 23.847656 31.921875 C 30.617188 31.921875 36.152344 26.382812 36.152344 19.617188 C 36.152344 12.847656 30.617188 7.308594 23.847656 7.308594 Z M 29.230469 27.078125 L 23.847656 24.230469 L 18.460938 27.078125 L 19.460938 21.078125 L 15.078125 16.847656 L 21.078125 16 L 23.769531 10.539062 L 26.460938 16 L 32.460938 16.847656 L 28.078125 21.078125 Z M 29.230469 27.078125 "/>
<path style=" stroke:none;fill-rule:nonzero;fill:rgb(10.980392%,12.156863%,12.54902%);fill-opacity:1;" d="M 32.539062 34.460938 C 35.921875 34.460938 38.691406 31.691406 38.691406 28.308594 C 38.691406 26.691406 39.308594 25.078125 40.460938 23.921875 C 42.847656 21.539062 42.847656 17.617188 40.460938 15.230469 C 39.308594 14.078125 38.691406 12.539062 38.691406 10.847656 C 38.691406 7.460938 35.921875 4.691406 32.539062 4.691406 C 30.921875 4.691406 29.308594 4.078125 28.152344 2.921875 C 25.769531 0.539062 21.847656 0.539062 19.460938 2.921875 C 18.308594 4.078125 16.769531 4.691406 15.078125 4.691406 C 11.691406 4.691406 8.921875 7.460938 8.921875 10.847656 C 8.921875 12.460938 8.308594 14.078125 7.152344 15.230469 C 4.769531 17.691406 4.769531 21.539062 7.152344 24 C 8.308594 25.152344 8.921875 26.691406 8.921875 28.382812 C 8.921875 31.769531 11.691406 34.539062 15.078125 34.539062 C 16.691406 34.539062 18.308594 35.152344 19.460938 36.308594 C 21.847656 38.691406 25.769531 38.691406 28.152344 36.308594 C 29.382812 35.152344 30.921875 34.460938 32.539062 34.460938 Z M 23.847656 33.460938 C 16.230469 33.460938 10 27.230469 10 19.617188 C 10 12 16.230469 5.769531 23.847656 5.769531 C 31.460938 5.769531 37.691406 12 37.691406 19.617188 C 37.691406 27.230469 31.460938 33.460938 23.847656 33.460938 Z M 23.847656 33.460938 "/>
</g>
</svg>
