<?xml version="1.0" encoding="UTF-8"?>
<svg xmlns="http://www.w3.org/2000/svg" xmlns:xlink="http://www.w3.org/1999/xlink" width="50px" height="50px" viewBox="0 0 50 50" version="1.1">
<g id="surface1">
<path style=" stroke:none;fill-rule:nonzero;fill:rgb(0%,0%,0%);fill-opacity:1;" d="M 50 27.414062 L 41.027344 17.28125 L 32.710938 17.28125 L 32.710938 13.277344 L 22.792969 13.277344 C 20.886719 9.199219 16.746094 6.367188 11.957031 6.367188 C 5.363281 6.367188 0 11.730469 0 18.324219 C 0 22.902344 2.585938 26.886719 6.375 28.894531 L 6.375 38.335938 L 10.921875 38.335938 C 11.042969 41.277344 13.472656 43.632812 16.445312 43.632812 C 19.414062 43.632812 21.84375 41.277344 21.964844 38.335938 L 34.40625 38.335938 C 34.527344 41.277344 36.960938 43.632812 39.929688 43.632812 C 42.898438 43.632812 45.332031 41.277344 45.453125 38.335938 L 50 38.335938 Z M 2.082031 18.324219 C 2.082031 12.878906 6.511719 8.453125 11.957031 8.453125 C 17.402344 8.453125 21.832031 12.878906 21.832031 18.324219 C 21.832031 23.769531 17.402344 28.199219 11.957031 28.199219 C 6.511719 28.199219 2.082031 23.769531 2.082031 18.324219 Z M 16.445312 41.546875 C 14.542969 41.546875 13 40.003906 13 38.105469 C 13 36.203125 14.542969 34.660156 16.445312 34.660156 C 18.34375 34.660156 19.886719 36.203125 19.886719 38.105469 C 19.886719 40.003906 18.34375 41.546875 16.445312 41.546875 Z M 30.628906 36.25 L 21.652344 36.25 C 20.886719 34.113281 18.84375 32.574219 16.445312 32.574219 C 14.042969 32.574219 12 34.113281 11.234375 36.25 L 8.457031 36.25 L 8.457031 29.757812 C 9.5625 30.097656 10.738281 30.28125 11.957031 30.28125 C 18.550781 30.28125 23.914062 24.917969 23.914062 18.324219 C 23.914062 17.300781 23.785156 16.308594 23.542969 15.359375 L 30.628906 15.359375 Z M 39.929688 41.546875 C 38.03125 41.546875 36.484375 40.003906 36.484375 38.105469 C 36.484375 36.203125 38.03125 34.660156 39.929688 34.660156 C 41.828125 34.660156 43.375 36.203125 43.375 38.105469 C 43.375 40.003906 41.828125 41.546875 39.929688 41.546875 Z M 47.917969 36.25 L 45.136719 36.25 C 44.375 34.113281 42.328125 32.574219 39.929688 32.574219 C 37.53125 32.574219 35.484375 34.113281 34.722656 36.25 L 32.710938 36.25 L 32.710938 19.367188 L 40.089844 19.367188 L 47.917969 28.203125 Z M 47.917969 36.25 "/>
<path style=" stroke:none;fill-rule:nonzero;fill:rgb(0%,0%,0%);fill-opacity:1;" d="M 16.628906 19.839844 L 13 17.726562 L 13 10.769531 L 10.914062 10.769531 L 10.914062 18.921875 L 15.582031 21.640625 Z M 16.628906 19.839844 "/>
</g>
</svg>
